<?xml version="1.0" encoding="UTF-8" standalone="no"?>
<!-- Created with Inkscape (http://www.inkscape.org/) -->

<svg
   width="256.0px"
   height="256.0px"
   viewBox="0 0 256.0 256.0"
   version="1.1"
   id="SVGRoot"
   xml:space="preserve"
   xmlns="http://www.w3.org/2000/svg"
   xmlns:svg="http://www.w3.org/2000/svg"><defs
     id="defs256" /><g
     id="layer1"><path
       d="M 221.33334,25.009484 H 208.00001 V 7.6673 H 141.33334 V 25.009484 H 114.66666 V 7.6673 H 48.000003 V 25.009484 H 34.666668 C 20,25.009484 8,35.780239 8,54.637383 V 220.0356 c 0,18.85714 12,28.2971 26.666668,28.2971 H 221.33334 C 236,248.3327 248,238.89274 248,220.0356 V 54.637383 C 248,35.780238 236,25.009484 221.33334,25.009484 Z m 13.9152,200.470766 c 0,5.51565 -2.85995,9.19274 -7.14989,9.19274 H 27.901363 c -4.289944,0 -7.149905,-3.67709 -7.149905,-9.19274 V 49.192734 C 20.751458,43.677092 23.611419,40 27.901363,40 H 228.09865 c 4.28994,0 7.14989,3.677092 7.14989,9.192734 z"
       id="path441"
       style="opacity:0.80017513;stroke-width:15.1185" /><path
       d="m 128,59.882844 c -43.093949,0 -78.098187,35.004238 -78.098187,78.098156 0,43.09395 35.004238,78.09819 78.098187,78.09819 43.09395,0 78.09819,-35.00424 78.09819,-78.09819 0,-43.093918 -35.00424,-78.098155 -78.09819,-78.098156 z m 0,8.560745 c 38.44277,0 69.53737,31.09466 69.53737,69.537411 0,38.44277 -31.0946,69.53737 -69.53737,69.53737 -38.442768,0 -69.537443,-31.0946 -69.537443,-69.53737 0,-38.442751 31.094675,-69.53741 69.537443,-69.537411 z m 2.26871,6.46156 c -0.086,0.0852 0.3195,2.070469 0.89726,4.409313 1.62287,6.573816 -0.10492,9.934405 -8.01105,15.586265 -1.64827,1.178341 -4.01417,2.901616 -5.25531,3.832478 -3.2589,2.444405 -22.648078,15.033885 -38.542789,25.020125 -2.549551,1.60188 -10.899036,7.40772 -13.176585,9.16469 -3.626753,2.79781 -3.400584,3.09585 1.53814,2.06361 12.968008,-2.7104 16.346819,-0.15777 34.197624,25.77643 6.42235,9.33052 7.81123,11.30475 13.90715,19.84175 8.37212,11.72458 10.09857,13.96971 13.52266,17.57304 1.05189,1.10687 3.29835,4.9276 3.11471,1.56377 0.086,-0.85268 -0.19249,-3.06443 -0.61533,-4.92199 -2.5505,-11.21372 1.22236,-15.39789 33.97973,-37.73531 29.41218,-20.05625 29.79794,-22.48479 22.57196,-21.12351 -4.25446,0.84551 -7.00691,1.37066 -10.30542,-1.5125 -7.66828,-7.13794 -10.79419,-14.99414 -16.15031,-20.89284 0,0 -2.2392,-2.77194 -3.99909,-3.55047 -3.04677,-1.19482 -2.38389,-0.21774 -8.35714,3.02492 -1.3328,0.72339 -5.76294,3.50361 -8.5366,5.40912 -1.12218,0.77073 -2.14621,1.39709 -2.26872,1.39709 -0.27532,0 -7.75917,4.88943 -10.26699,6.70367 -2.73581,1.9792 -2.73904,1.98164 4.33239,11.92047 6.85521,9.63487 7.82378,10.10424 7.60086,3.65303 -0.21932,-6.34356 1.88626,-9.68434 8.66479,-13.7662 4.19332,-2.52509 4.88942,-2.0756 11.27959,7.1138 3.12976,4.50083 2.80396,5.18146 -4.66569,9.65175 -0.86603,0.51829 -3.56965,2.37529 -6.01144,4.1273 -2.44187,1.75192 -5.19298,3.62667 -6.11406,4.16571 -0.92109,0.53879 -4.168,2.65983 -7.21635,4.70411 -3.04835,2.04428 -6.60388,4.32498 -7.89573,5.07583 l -2.34563,1.37145 -1.84572,-1.98669 c -1.00975,-1.09377 -3.46479,-4.37902 -5.46033,-7.29326 -1.9956,-2.91425 -4.96861,-7.23758 -6.6011,-9.61333 -1.63265,-2.37569 -3.51758,-5.18068 -4.19144,-6.2294 -0.67368,-1.04873 -2.24749,-3.411 -3.49919,-5.24245 -5.302393,-7.75807 -5.961885,-6.78775 12.31775,-18.09858 33.36038,-20.642027 31.79085,-19.554964 30.83939,-21.341361 -2.54577,-4.779766 -16.55343,-20.720475 -17.43206,-19.84183 z"
       style="stroke-width:6.56265"
       id="path1196" /><path
       style="fill:#111111"
       d="m 216.40022,151.03141 a 1.0495913,1.0495913 0 0 0 0.36509,0.71652 1.0495913,1.0495913 0 0 0 1.47989,-0.11519 L 231,136.70691 a 1.0496963,1.0496963 0 0 0 0.002,-1.36275 l -12.7568,-14.97464 a 1.0495913,1.0495913 0 0 0 -1.47989,-0.11909 1.0495913,1.0495913 0 0 0 -0.11714,1.47989 l 12.17494,14.29326 -12.17494,14.24445 a 1.0495913,1.0495913 0 0 0 -0.24795,0.76338 z"
       id="path660" /><path
       style="fill:#111111"
       d="m 39.570958,120.96859 a 1.0495913,1.0495913 0 0 0 -0.36509,-0.71652 1.0495913,1.0495913 0 0 0 -1.47989,0.11519 l -12.7548,14.92583 a 1.0496963,1.0496963 0 0 0 -0.002,1.36275 l 12.7568,14.97464 a 1.0495913,1.0495913 0 0 0 1.47989,0.11909 1.0495913,1.0495913 0 0 0 0.11714,-1.47989 l -12.17494,-14.29326 12.17494,-14.24445 a 1.0495913,1.0495913 0 0 0 0.24795,-0.76338 z"
       id="path669" /></g></svg>
